#!OML:ASF H:\Terrain\Patient Classification 1\Animal2\Wednesday\Animal2.ASF
:FULLY-SPECIFIED
:DEGREES
924
root 16.3285 16.3645 2.70825 -53.1619 -82.1243 60.553
lowerback 9.29512 -0.982972 1.15255
upperback -3.04987 -0.80562 6.61402
thorax -8.41687 -0.315605 6.59237
lowerneck 12.9219 14.2392 17.6958
upperneck -22.6539 18.2502 -26.7118
head -4.23125 10.0006 -12.4458
rclavicle 1.55052e-014 3.18055e-015
rhumerus -48.7992 -47.4266 17.1765
rradius 39.3053
rwrist -25.2798
rhand -28.4251 1.80407
rfingers 7.12502
rthumb -1.79651 -28.1681
lclavicle 1.55052e-014 3.18055e-015
lhumerus 70.5311 54.3434 18.2708
lradius 34.9377
lwrist 46.014
lhand -29.8743 28.3004
lfingers 7.12502
lthumb -3.19604 58.2562
rfemur -19.0135 -6.19067 -4.17441
rtibia 48.6275
rfoot -31.6424 -9.72211
rtoes -25.2529
lfemur -23.9563 10.9602 -6.73918
ltibia 46.9424
lfoot -14.2222 5.12092
ltoes -38.6713
925
root 16.3777 16.2951 2.83873 -48.3974 -81.2576 55.6206
lowerback 9.43015 -0.927714 1.31263
upperback -2.94479 -0.70488 6.72604
thorax -8.3935 -0.274208 6.60822
lowerneck 12.7013 14.1319 17.7722
upperneck -22.3662 18.0952 -26.9362
head -4.10539 9.93549 -12.4941
rclavicle 7.15625e-015 -4.13472e-014
rhumerus -51.0201 -48.9926 19.8933
rradius 35.0126
rwrist -20.9273
rhand -29.1021 2.10463
rfingers 7.12502
rthumb -2.45036 -27.861
lclavicle 7.15625e-015 -4.13472e-014
lhumerus 69.7233 54.0201 17.6104
lradius 35.1025
lwrist 46.652
lhand -30.1193 28.7779
lfingers 7.12502
lthumb -3.43267 58.73
rfemur -18.758 -6.68019 -5.03267
rtibia 49.2899
rfoot -31.4758 -10.8314
rtoes -27.112
lfemur -25.1265 11.7493 -7.55884
ltibia 48.3243
lfoot -15.7946 3.31463
ltoes -36.2191
926
root 16.4218 16.2358 2.96794 -43.791 -80.4868 50.7564
lowerback 9.52572 -0.84057 1.78398
upperback -2.76285 -0.531249 6.83856
thorax -8.27343 -0.21717 6.42725
lowerneck 12.3058 14.0582 17.3322
upperneck -22.1102 17.9115 -26.6523
head -4.09015 9.83201 -12.2885
rclavicle -7.95139e-016 -5.08889e-014
rhumerus -53.3908 -49.9175 22.2942
rradius 31.297
rwrist -17.4463
rhand -30.1527 1.40276
rfingers 7.12502
rthumb -3.46492 -28.5488
lclavicle -7.95139e-016 -5.08889e-014
lhumerus 68.9676 53.7116 16.8493
lradius 35.1047
lwrist 47.2244
lhand -30.1932 28.9207
lfingers 7.12502
lthumb -3.50399 58.8717
rfemur -18.2757 -6.44858 -5.51526
rtibia 49.7036
rfoot -30.9922 -13.2461
rtoes -30.3424
lfemur -26.06 12.3513 -8.17129
ltibia 49.4536
lfoot -17.1518 1.57091
ltoes -32.5115
927
root 16.4647 16.1785 3.09806 -40.6299 -79.4853 47.2991
lowerback 9.57508 -0.728669 2.1998
upperback -2.53787 -0.342154 6.78816
thorax -8.0782 -0.15169 6.09177
lowerneck 12.0783 13.9364 17.0722
upperneck -22.0735 17.6821 -26.4858
head -4.1419 9.71105 -12.1923
rclavicle -6.36111e-015 -3.18055e-014
rhumerus -56.5448 -50.9847 25.27
rradius 27.8936
rwrist -13.3463
rhand -30.5534 -0.0900102
rfingers 7.12502
rthumb -3.85183 -30.0349
lclavicle -6.36111e-015 -3.18055e-014
lhumerus 68.2843 53.3626 15.9426
lradius 35.1013
lwrist 47.7164
lhand -30.4963 29.1943
lfingers 7.12502
lthumb -3.79669 59.1402
rfemur -17.5297 -6.0841 -6.25937
rtibia 49.8561
rfoot -30.574 -15.3285
rtoes -31.9189
lfemur -26.8265 12.7708 -9.05428
ltibia 50.4198
lfoot -18.1832 0.608182
ltoes -31.8323
928
root 16.5077 16.1297 3.22422 -37.2848 -78.4794 43.7191
lowerback 9.64237 -0.659059 2.54833
upperback -2.44981 -0.204297 6.8564
thorax -8.03584 -0.102175 5.94272
lowerneck 12.2988 13.7854 17.1874
upperneck -22.2423 17.4781 -26.7227
head -4.23301 9.63652 -12.3517
rclavicle 6.75868e-015 3.81667e-014
rhumerus -60.5386 -52.4727 29.4963
rradius 24.5368
rwrist -7.7581
rhand -30.0405 -1.60017
rfingers 7.12502
rthumb -3.35657 -31.5535
lclavicle 6.75868e-015 3.81667e-014
lhumerus 67.0403 52.8814 14.4932
lradius 35.1365
lwrist 48.3428
lhand -30.679 29.6586
lfingers 7.12502
lthumb -3.97319 59.6013
rfemur -16.6674 -5.70101 -6.87635
rtibia 49.8426
rfoot -30.7001 -15.7374
rtoes -30.2346
lfemur -27.6369 13.1865 -9.88396
ltibia 51.3139
lfoot -19.0547 0.218684
ltoes -34.4449
929
root 16.5476 16.0928 3.34542 -34.168 -77.4787 40.3905
lowerback 9.74693 -0.648746 2.83633
upperback -2.44049 -0.144087 6.93515
thorax -8.0931 -0.0854264 5.85816
lowerneck 12.4694 13.7322 17.5269
upperneck -22.263 17.4866 -26.921
head -4.20544 9.64762 -12.4881
rclavicle 1.94809e-014 3.49861e-014
rhumerus -65.6152 -54.0784 34.7854
rradius 21.6779
rwrist -1.46715
rhand -28.993 -3.30482
rfingers 7.12502
rthumb -2.34491 -33.2717
lclavicle 1.94809e-014 3.49861e-014
lhumerus 65.1107 52.2642 12.1399
lradius 35.2442
lwrist 49.2385
lhand -30.6004 29.5784
lfingers 7.12502
lthumb -3.89722 59.5225
rfemur -15.7776 -4.82419 -7.21653
rtibia 49.7599
rfoot -30.8548 -16.6936
rtoes -28.5123
lfemur -28.4072 13.5155 -10.6547
ltibia 52.1524
lfoot -19.6455 0.00743435
ltoes -37.0946
930
root 16.5867 16.0579 3.46915 -32.2995 -76.1747 38.3343
lowerback 9.77538 -0.607251 2.9604
upperback -2.38123 -0.07438 6.87008
thorax -8.05059 -0.0579741 5.70188
lowerneck 12.2242 13.7022 17.7941
upperneck -22.0478 17.5045 -26.9386
head -4.06517 9.63206 -12.4812
rclavicle 6.75868e-015 6.04305e-014
rhumerus -72.227 -55.4141 41.4086
rradius 19.6449
rwrist 5.26569
rhand -27.0441 -5.3172
rfingers 7.12502
rthumb -0.462639 -35.2964
lclavicle 6.75868e-015 6.04305e-014
lhumerus 63.8404 51.7222 10.4329
lradius 35.4684
lwrist 49.8128
lhand -30.3324 29.5598
lfingers 7.12502
lthumb -3.63848 59.5085
rfemur -14.8043 -3.99412 -7.81722
rtibia 49.6513
rfoot -30.8447 -18.3914
rtoes -27.6779
lfemur -29.1557 13.5556 -11.7309
ltibia 52.9408
lfoot -20.2753 -0.985991
ltoes -35.5615
931
root 16.6261 16.0215 3.5936 -30.1467 -74.8135 35.9939
lowerback 9.78483 -0.577281 3.22312
upperback -2.36243 0.00138589 6.90936
thorax -8.04228 -0.0330658 5.58173
lowerneck 12.0889 13.6179 17.7851
upperneck -21.9327 17.3936 -26.8877
head -4.04183 9.56938 -12.4493
rclavicle 7.95139e-016 3.81667e-014
rhumerus -78.5243 -55.9397 47.3698
rradius 18.3189
rwrist 11.3075
rhand -24.9182 -6.32958
rfingers 7.12502
rthumb 1.59058 -36.3034
lclavicle 7.95139e-016 3.81667e-014
lhumerus 62.8468 51.2202 9.23055
lradius 35.7277
lwrist 50.1231
lhand -29.8598 29.5671
lfingers 7.12502
lthumb -3.18208 59.5231
rfemur -13.6782 -3.21861 -8.24563
rtibia 49.4609
rfoot -30.9198 -19.8095
rtoes -26.3073
lfemur -29.9469 13.4355 -12.6648
ltibia 53.708
lfoot -21.094 -0.814577
ltoes -37.6152
932
root 16.6667 15.9836 3.71175 -27.3839 -73.5301 33.0358
lowerback 9.82888 -0.601464 3.66848
upperback -2.35865 0.0347498 7.08181
thorax -8.06866 -0.0366208 5.51321
lowerneck 11.8984 13.595 17.7674
upperneck -21.805 17.3389 -26.9923
head -3.972 9.54636 -12.454
rclavicle 9.93923e-015 -1.04958e-013
rhumerus -81.5682 -55.6591 49.0024
rradius 17.6909
rwrist 13.7742
rhand -23.6467 -6.45468
rfingers 7.12502
rthumb 2.81858 -36.4158
lclavicle 9.93923e-015 -1.04958e-013
lhumerus 61.3771 50.7328 7.49999
lradius 36.0471
lwrist 50.6881
lhand -29.5752 29.4374
lfingers 7.12502
lthumb -2.90717 59.3974
rfemur -12.4626 -2.08465 -8.18232
rtibia 49.1561
rfoot -31.1519 -21.3397
rtoes -24.3992
lfemur -30.772 13.1306 -13.2588
ltibia 54.4812
lfoot -21.7876 -0.436849
ltoes -40.2964
933
root 16.7094 15.9555 3.82618 -25.1189 -72.2305 30.6227
lowerback 9.90137 -0.560228 4.11835
upperback -2.33418 0.155391 7.1814
thorax -8.0936 0.00120764 5.34777
lowerneck 11.4754 13.573 17.7026
upperneck -21.6413 17.2427 -27.0923
head -3.86559 9.49262 -12.4248
rclavicle 2.90226e-014 -1.59028e-014
rhumerus -81.2462 -54.8606 46.1291
rradius 17.7787
rwrist 13.2881
rhand -22.9735 -7.86413
rfingers 7.12502
rthumb 3.46867 -37.8157
lclavicle 2.90226e-014 -1.59028e-014
lhumerus 60.2545 50.3494 5.97817
lradius 36.383
lwrist 51.0321
lhand -29.2523 29.3479
lfingers 7.12502
lthumb -2.59535 59.3119
rfemur -11.3041 -0.95312 -8.07565
rtibia 48.7563
rfoot -31.4021 -22.702
rtoes -21.6265
lfemur -31.568 12.4572 -13.8438
ltibia 55.2542
lfoot -22.4281 -2.25194
ltoes -36.4445
934
root 16.7529 15.9328 3.9445 -23.1028 -70.8873 28.5777
lowerback 9.7977 -0.583435 4.70758
upperback -2.34647 0.190151 7.16927
thorax -8.04855 -0.0115291 4.99125
lowerneck 11.3828 13.4868 17.6468
upperneck -21.8653 17.0682 -27.0825
head -3.96147 9.40253 -12.4431
rclavicle 7.79236e-014 9.54166e-015
rhumerus -80.1514 -54.1072 42.0333
rradius 18.1236
rwrist 13.1226
rhand -22.5324 -9.60195
rfingers 7.12502
rthumb 3.89463 -39.5461
lclavicle 7.79236e-014 9.54166e-015
lhumerus 58.8622 49.9744 3.98068
lradius 36.7557
lwrist 51.4128
lhand -28.9285 28.9473
lfingers 7.12502
lthumb -2.28265 58.9148
rfemur -10.227 -0.211807 -8.0378
rtibia 48.2999
rfoot -31.2964 -24.0382
rtoes -19.339
lfemur -32.4338 11.5638 -14.4848
ltibia 56.015
lfoot -22.9126 -3.66743
ltoes -32.5053
935
root 16.7967 15.905 4.06035 -20.988 -69.5133 26.4456
lowerback 9.61847 -0.633279 5.39432
upperback -2.38205 0.194679 7.18288
thorax -7.98392 -0.0434224 4.61321
lowerneck 11.4201 13.37 17.9425
upperneck -22.21 16.8989 -27.2971
head -4.04854 9.3168 -12.6147
rclavicle -2.3059e-014 7.95139e-014
rhumerus -78.6021 -53.3219 37.1594
rradius 18.4551
rwrist 12.4513
rhand -22.6383 -9.56566
rfingers 7.12502
rthumb 3.79236 -39.5117
lclavicle -2.3059e-014 7.95139e-014
lhumerus 57.5425 49.6239 2.04547
lradius 37.1715
lwrist 51.9708
lhand -28.6542 28.7953
lfingers 7.12502
lthumb -2.01772 58.7655
rfemur -9.12171 0.424828 -7.83133
rtibia 47.8337
rfoot -31.1255 -25.5765
rtoes -17.3881
lfemur -33.3472 10.664 -15.0244
ltibia 56.7583
lfoot -23.2535 -3.72537
ltoes -32.8096
